<svg width="150" height="150" xmlns="http://www.w3.org/2000/svg" version="1.1" enable-background="new 0 0 1000 803" xml:space="preserve">
 <g>
  <title>Layer 1</title>
  <rect rx="40" id="svg_2" height="150" width="150" y="0" x="0" fill="#ee6352"/>
  <g transform="matrix(2.6341 0 0 2.6341 -29.022 -30.1867)" id="SvgjsG4779" featurekey="symbolFeature-0" fill="#ee6352">
   <path fill="#ffffff" d="m58.89117,43.37587l-13.03,-22.18c-0.17,-0.29 -0.47,-0.46 -0.81,-0.46s-0.64,0.18 -0.81,0.46l-4.2,7.16l-4.21,-7.15c-0.17,-0.29 -0.47,-0.46 -0.81,-0.46s-0.64,0.18 -0.81,0.46l-13.02,22.17c-0.22,0.37 -0.16,0.83 0.14,1.13l13.03,13.03c0.18,0.18 0.42,0.27 0.66,0.27s0.48,-0.09 0.66,-0.27l4.36,-4.35l4.35,4.35c0.18,0.18 0.42,0.27 0.66,0.27s0.48,-0.09 0.66,-0.27l13.03,-13.03c0.31,-0.3 0.37,-0.77 0.15,-1.13zm-23.86,12.18l-11.86,-11.86l11.86,-20.18l3.93,6.68l-7.75,13.18c-0.22,0.37 -0.16,0.83 0.14,1.13l7.36,7.36l-3.68,3.69zm5.01,-23.51l6.85,11.65l-6.85,6.85l-6.85,-6.85l6.85,-11.65zm5.01,23.51l-3.69,-3.69l7.36,-7.36c0.3,-0.3 0.36,-0.77 0.14,-1.13l-7.74,-13.17l3.93,-6.68l11.86,20.18l-11.86,11.85z" id="svg_1" xmlns="http://www.w3.org/2000/svg"/>
  </g>
 </g>

</svg>