<svg width="1333.33" height="1333.3" xmlns="http://www.w3.org/2000/svg" clip-rule="evenodd" fill-rule="evenodd" image-rendering="optimizeQuality" text-rendering="geometricPrecision" shape-rendering="geometricPrecision">
 <g>
  <path id="svg_1" fill-rule="nonzero" fill="#000" d="m666.66,0c-368.18,0 -666.66,298.47 -666.66,666.65c0,368.19 298.48,666.65 666.66,666.65c368.22,0 666.67,-298.45 666.67,-666.65c0,-368.16 -298.45,-666.62 -666.68,-666.62l0.01,-0.04l0,0.01zm305.73,961.51c-11.94,19.58 -37.57,25.8 -57.16,13.77c-156.52,-95.61 -353.57,-117.26 -585.63,-64.24c-22.36,5.09 -44.65,-8.92 -49.75,-31.29c-5.12,-22.37 8.84,-44.66 31.26,-49.75c253.95,-58.02 471.78,-33.04 647.51,74.35c19.59,12.02 25.8,37.57 13.77,57.16zm81.6,-181.52c-15.05,24.45 -47.05,32.17 -71.49,17.13c-179.2,-110.15 -452.35,-142.05 -664.31,-77.7c-27.49,8.3 -56.52,-7.19 -64.86,-34.63c-8.28,-27.49 7.22,-56.46 34.66,-64.82c242.11,-73.46 543.1,-37.88 748.89,88.58c24.44,15.05 32.16,47.05 17.12,71.46l0,-0.01l-0.01,-0.01zm7.01,-189.02c-214.87,-127.62 -569.36,-139.35 -774.5,-77.09c-32.94,9.99 -67.78,-8.6 -77.76,-41.55c-9.98,-32.96 8.6,-67.77 41.56,-77.78c235.49,-71.49 626.96,-57.68 874.34,89.18c29.69,17.59 39.41,55.85 21.81,85.44c-17.52,29.63 -55.89,39.4 -85.42,21.8l-0.03,0z"/>
 </g>
</svg>